# xmcd
#
# Track frame offsets: 
#        150
#        14510
#        29035
#        42505
#        56170
#        69947
#        84737
#        97967
#        111990
#        118057
#        133082
#        144622
#        163610
#        178372
#        200865
#
# Disc length: 2959 seconds
#
# Revision: 0
# Processed by: cddbd v1.5.2PL0 Copyright (c) Steve Scherf et al.
# Submitted via: ExactAudioCopy v0.99pb5
#
DISCID=ea0b8d0f
DTITLE=Ledward Kaapana - Led Live - Solo
DYEAR=1994
DGENRE=World Music
TTITLE0=Salomila
TTITLE1=Na Ka Pueo
TTITLE2=He Aloha Nó O Honolulu
TTITLE3=Radio Hula
TTITLE4=Ku'u Ipo Onaona
TTITLE5=Ka'a  Ahi Kahului
TTITLE6=É Lili'u É
TTITLE7=Whee Ha Swing
TTITLE8=Glass Ball Slack Key
TTITLE9='Opihi Moemoe
TTITLE10=Mauna Loa Slack Key
TTITLE11=Silver Strings
TTITLE12=Kí ho'alu
TTITLE13=Hi'ilawe
TTITLE14=I Kona
EXTD=
EXTT0=
EXTT1=
EXTT2=
EXTT3=
EXTT4=
EXTT5=
EXTT6=
EXTT7=
EXTT8=
EXTT9=
EXTT10=
EXTT11=
EXTT12=
EXTT13=
EXTT14=
PLAYORDER=
